Coordinates
version=1
nRows=4
nColumns=107
inDegrees=yes

Units are S.I. units (second, meters, Newtons, ...)
If the header above contains a line with 'inDegrees', this indicates whether rotational values are in degrees (yes) or radians (no).

endheader
time	sternoclavicular_r2	sternoclavicular_r3	unrotscap_r3	unrotscap_r2	acromioclavicular_r2	acromioclavicular_r3	acromioclavicular_r1	unrothum_r1	unrothum_r3	unrothum_r2	elv_angle	shoulder_elv	shoulder1_r2	shoulder_rot	elbow_flexion	pro_sup	deviation	flexion	proximal_distal_r1	proximal_distal_r3	cmc_flexion	cmc_abduction	mp_flexion	ip_flexion	mcp2_flexion	mcp2_abduction	pm2_flexion	md2_flexion	mcp3_flexion	mcp3_abduction	pm3_flexion	md3_flexion	mcp4_flexion	mcp4_abduction	pm4_flexion	md4_flexion	mcp5_flexion	mcp5_abduction	pm5_flexion	md5_flexion	bicpt_tx	bicpt_ty	bicpt_tz	bicpt2_tx	bicpt2_ty	bicpt2_tz	ptpt_tx	ptpt_ty	ptpt_tz	FCUpt_tx	FCUpt_ty	FCUpt_tz	EDCpt_tx	EDCpt_ty	EDCpt_tz	APLpt_tx	APLpt_ty	APLpt_tz	FPLpt_tx	FPLpt_ty	FPLpt_tz	FPLpt2_tx	FPLpt2_ty	FPLpt2_tz	PEC1pt2_tx	PEC1pt2_ty	PEC1pt2_tz	PEC1pt3_tx	PEC1pt3_ty	PEC1pt3_tz	PEC2pt2_tx	PEC2pt2_ty	PEC2pt2_tz	PEC2pt3_tx	PEC2pt3_ty	PEC2pt3_tz	PEC3pt2_tx	PEC3pt2_ty	PEC3pt2_tz	PEC3pt3_tx	PEC3pt3_ty	PEC3pt3_tz	DELT2pt2a_tx	DELT2pt2a_ty	DELT2pt2a_tz	DELT2pt2_tx	DELT2pt2_ty	DELT2pt2_tz	LAT1pt2_tx	LAT1pt2_ty	LAT1pt2_tz	LAT1pt3_tx	LAT1pt3_ty	LAT1pt3_tz	LAT2pt2_tx	LAT2pt2_ty	LAT2pt2_tz	LAT2pt3_tx	LAT2pt3_ty	LAT2pt3_tz	LAT3pt2_tx	LAT3pt2_ty	LAT3pt2_tz	LAT3pt3_tx	LAT3pt3_ty	LAT3pt3_tz
      0.00000000	     -0.33106997	      0.14022561	     -0.14022561	      0.33106997	     -0.06703494	      0.54175276	      0.24351414	     -0.24351414	     -0.54175276	      0.06703494	     97.63308350	     78.38375890	     -1.70401877	    -13.65926706	     28.67028613	     28.42191807	      0.17245875	     -0.09923083	      0.20970682	     -0.04961541	     31.52115310	     -2.74235520	     -9.21118602	      2.66043364	    -10.83985269	     11.43204588	     21.65830955	     -3.83112129	    -15.72429562	     -2.12008979	     12.03674775	     14.43044850	    -20.03313216	     -0.93444436	      4.40030332	     20.07541342	   -386.51678471	    -14.05741310	     -6.07084369	      5.06678200	      0.00084832	     -0.03088605	     -0.00482930	      0.01639944	     -0.01798842	     -0.00861203	      0.00544994	     -0.06625793	     -0.00233954	      0.00663526	     -0.18371688	     -0.00025375	     -0.00341062	      0.00092995	      0.00019321	      0.00009328	      0.00003731	      0.00018656	      0.00011940	      0.00035820	      0.00020149	     -0.00001039	     -0.00023604	     -0.00028325	      0.00256925	      0.00901414	      0.00627071	     -0.00840449	      0.02029270	     -0.01924758	      0.00256925	      0.00901414	      0.00627071	      0.00056611	      0.01881212	     -0.00988507	      0.00403095	      0.00501265	      0.01616696	      0.00000000	      0.00822022	      0.00000000	     -0.00735937	     -0.03400987	     -0.00678031	      0.00984846	     -0.00024566	     -0.00143005	     -0.00091448	      0.01532839	     -0.00627071	      0.00252570	      0.02212166	     -0.01828956	     -0.00614007	      0.01328170	     -0.00561751	     -0.01280269	      0.02804399	     -0.03139708	     -0.02403771	      0.01484938	     -0.00753356	     -0.01593804	      0.03239865	     -0.03923546
      0.03333333	     -0.32760979	      0.13876004	     -0.13876004	      0.32760979	     -0.06633432	      0.53609062	      0.24096904	     -0.24096904	     -0.53609062	      0.06633432	     98.26762668	     77.56452898	     -1.71509363	    -17.41202413	     28.67933419	     31.94725919	      0.15686469	     -0.09173853	      0.19274686	     -0.04586926	     31.58838798	     -2.73498449	     -8.83380881	      0.94625800	    -10.38360172	     11.27848217	     22.49313979	     -4.62607635	    -15.51000529	     -1.90621443	     11.89066090	     14.56805680	    -19.11452357	     -0.92898738	      2.88411078	     20.99351237	   -386.74461553	    -14.06547951	     -5.82822383	      5.02833520	      0.00084862	     -0.03088709	     -0.00482946	      0.01648519	     -0.01799088	     -0.00828421	      0.00518946	     -0.06642637	     -0.00262352	      0.00697950	     -0.18365337	     -0.00030484	     -0.00383366	      0.00106267	      0.00018666	      0.00008681	      0.00003473	      0.00017363	      0.00011112	      0.00033337	      0.00018752	     -0.00001046	     -0.00023536	     -0.00028244	      0.00254240	      0.00891993	      0.00620517	     -0.00831665	      0.02008061	     -0.01904642	      0.00254240	      0.00891993	      0.00620517	      0.00056019	      0.01861550	     -0.00978176	      0.00400049	      0.00496026	      0.01609465	      0.00000000	      0.00804802	      0.00000000	     -0.00728245	     -0.03365442	     -0.00663743	      0.01223806	     -0.00035382	     -0.00245375	     -0.00090492	      0.01516819	     -0.00620517	      0.00249930	      0.02189045	     -0.01809841	     -0.00607589	      0.01314289	     -0.00555880	     -0.01266888	      0.02775089	     -0.03106893	     -0.02378648	      0.01469418	     -0.00745482	     -0.01577147	      0.03206003	     -0.03882539
      0.06666667	     -0.32540083	      0.13782443	     -0.13782443	      0.32540083	     -0.06588705	      0.53247595	      0.23934428	     -0.23934428	     -0.53247595	      0.06588705	     98.70552897	     77.04153915	     -1.72273647	    -20.00650571	     28.78425103	     34.71313369	      0.15192668	     -0.06712862	      0.18729387	     -0.03356431	     31.95498809	     -2.66247364	     -9.22461541	      0.97616904	    -10.29263957	     11.27829989	     22.84226118	     -5.16065140	    -15.57073074	     -1.66358853	     11.99490306	     14.31456693	    -18.57296716	     -0.90651007	      1.85720001	     20.81193361	   -386.54262959	    -14.05612442	     -6.27386046	      5.03322215	      0.00085209	     -0.03089912	     -0.00483140	      0.01653257	     -0.01801938	     -0.00801482	      0.00498509	     -0.06655851	     -0.00284633	      0.00725227	     -0.18360108	     -0.00033837	     -0.00416557	      0.00116949	      0.00017680	      0.00006491	      0.00002596	      0.00012982	      0.00008308	      0.00024925	      0.00014020	     -0.00001083	     -0.00023159	     -0.00027791	      0.00252525	      0.00885978	      0.00616333	     -0.00826057	      0.01994522	     -0.01891799	      0.00252525	      0.00885978	      0.00616333	      0.00055641	      0.01848999	     -0.00971580	      0.00398091	      0.00492681	      0.01604766	      0.00000000	      0.00793907	      0.00000000	     -0.00723335	     -0.03342750	     -0.00654701	      0.01378001	     -0.00043214	     -0.00330044	     -0.00089882	      0.01506591	     -0.00616333	      0.00248245	      0.02174285	     -0.01797637	     -0.00603493	      0.01305427	     -0.00552131	     -0.01258346	      0.02756377	     -0.03085944	     -0.02362609	      0.01459510	     -0.00740455	     -0.01566513	      0.03184386	     -0.03856360
      0.10000000	     -0.32528783	      0.13777657	     -0.13777657	      0.32528783	     -0.06586417	      0.53229105	      0.23926116	     -0.23926116	     -0.53229105	      0.06586417	     98.69513726	     77.01478614	     -1.72255510	    -20.00442177	     28.76898823	     34.71234153	      0.15189230	     -0.06706236	      0.18725523	     -0.03353118	     31.95547003	     -2.66271992	     -9.22465590	      0.97644484	    -10.28986946	     11.27780305	     22.84276821	     -5.16022306	    -15.56962927	     -1.66319558	     11.99522785	     14.31466206	    -18.57066747	     -0.90677237	      1.85797988	     20.81187072	   -386.54186573	    -14.05624147	     -6.27397524	      5.03319560	      0.00085159	     -0.03089737	     -0.00483112	      0.01653255	     -0.01801524	     -0.00801489	      0.00498515	     -0.06655847	     -0.00284627	      0.00725220	     -0.18360109	     -0.00033836	     -0.00416547	      0.00116946	      0.00017680	      0.00006485	      0.00002594	      0.00012970	      0.00008301	      0.00024902	      0.00014007	     -0.00001083	     -0.00023158	     -0.00027790	      0.00252438	      0.00885671	      0.00616119	     -0.00825770	      0.01993829	     -0.01891142	      0.00252438	      0.00885671	      0.00616119	      0.00055622	      0.01848356	     -0.00971243	      0.00397990	      0.00492510	      0.01604524	      0.00000000	      0.00793352	      0.00000000	     -0.00723084	     -0.03341589	     -0.00654240	      0.01377881	     -0.00043207	     -0.00329972	     -0.00089851	      0.01506068	     -0.00616119	      0.00248159	      0.02173530	     -0.01797013	     -0.00603283	      0.01304974	     -0.00551940	     -0.01257909	      0.02755420	     -0.03084873	     -0.02361789	      0.01459004	     -0.00740198	     -0.01565969	      0.03183281	     -0.03855021
